  0
SECTION
  2
HEADER
  9
$ACADVER
  1
AC1014
  9
$HANDSEED
  5
FFFF
  9
$INSUNITS
 70
     4
  9
$MEASUREMENT
 70
     1
  0
ENDSEC
  0
SECTION
  2
TABLES
  0
TABLE
  2
VPORT
  5
8
330
0
100
AcDbSymbolTable
 70
     4
  0
VPORT
  5
2E
330
8
100
AcDbSymbolTableRecord
100
AcDbViewportTableRecord
  2
*ACTIVE
 70
     0
 10
0.0
 20
0.0
 11
1.0
 21
1.0
 12
210.0
 22
148.5
 13
0.0
 23
0.0
 14
10.0
 24
10.0
 15
10.0
 25
10.0
 16
0.0
 26
0.0
 36
1.0
 17
0.0
 27
0.0
 37
0.0
 40
341.0
 41
1.24
 42
50.0
 43
0.0
 44
0.0
 50
0.0
 51
0.0
 71
     0
 72
   100
 73
     1
 74
     3
 75
     0
 76
     0
 77
     0
 78
     0
  0
ENDTAB
  0
TABLE
  2
LTYPE
  5
5
330
0
100
AcDbSymbolTable
 70
     1
  0
LTYPE
  5
14
330
5
100
AcDbSymbolTableRecord
100
AcDbLinetypeTableRecord
  2
BYBLOCK
 70
     0
  3

 72
    65
 73
     0
 40
0.0
  0
LTYPE
  5
15
330
5
100
AcDbSymbolTableRecord
100
AcDbLinetypeTableRecord
  2
BYLAYER
 70
     0
  3

 72
    65
 73
     0
 40
0.0
  0
LTYPE
  5
16
330
5
100
AcDbSymbolTableRecord
100
AcDbLinetypeTableRecord
  2
CONTINUOUS
 70
     0
  3
Solid line
 72
    65
 73
     0
 40
0.0
  0
ENDTAB
  0
TABLE
  2
LAYER
  5
2
100
AcDbSymbolTable
 70
3
  0
LAYER
  5
50
100
AcDbSymbolTableRecord
100
AcDbLayerTableRecord
  2
0
 70
0
  6
CONTINUOUS
  0
LAYER
  5
51
100
AcDbSymbolTableRecord
100
AcDbLayerTableRecord
  2
Profile
 70
0
  6
CONTINUOUS
  0
LAYER
  5
52
100
AcDbSymbolTableRecord
100
AcDbLayerTableRecord
  2
Layer_1
 70
0
  6
CONTINUOUS
  0
ENDTAB
  0
TABLE
  2
STYLE
  5
3
330
0
100
AcDbSymbolTable
 70
     1
  0
STYLE
  5
11
330
3
100
AcDbSymbolTableRecord
100
AcDbTextStyleTableRecord
  2
STANDARD
 70
     0
 40
0.0
 41
1.0
 50
0.0
 71
     0
 42
2.5
  3
txt
  4

  0
ENDTAB
  0
TABLE
  2
VIEW
  5
6
330
0
100
AcDbSymbolTable
 70
     0
  0
ENDTAB
  0
TABLE
  2
UCS
  5
7
330
0
100
AcDbSymbolTable
 70
     0
  0
ENDTAB
  0
TABLE
  2
APPID
  5
9
330
0
100
AcDbSymbolTable
 70
     2
  0
APPID
  5
12
330
9
100
AcDbSymbolTableRecord
100
AcDbRegAppTableRecord
  2
ACAD
 70
     0
  0
ENDTAB
  0
TABLE
  2
DIMSTYLE
  5
A
330
0
100
AcDbSymbolTable
 70
     1
  0
DIMSTYLE
105
27
330
A
100
AcDbSymbolTableRecord
100
AcDbDimStyleTableRecord
  2
ISO-25
 70
     0
  3

  4

  5

  6

  7

 40
1.0
 41
2.5
 42
0.625
 43
3.75
 44
1.25
 45
0.0
 46
0.0
 47
0.0
 48
0.0
140
2.5
141
2.5
142
0.0
143
0.03937007874016
144
1.0
145
0.0
146
1.0
147
0.625
 71
     0
 72
     0
 73
     0
 74
     0
 75
     0
 76
     0
 77
     1
 78
     8
170
     0
171
     3
172
     1
173
     0
174
     0
175
     0
176
     0
177
     0
178
     0
270
     2
271
     2
272
     2
273
     2
274
     3
340
11
275
     0
280
     0
281
     0
282
     0
283
     0
284
     8
285
     0
286
     0
287
     3
288
     0
  0
ENDTAB
  0
TABLE
  2
BLOCK_RECORD
  5
1
330
0
100
AcDbSymbolTable
 70
     1
  0
BLOCK_RECORD
  5
1F
330
1
100
AcDbSymbolTableRecord
100
AcDbBlockTableRecord
  2
*MODEL_SPACE
  0
BLOCK_RECORD
  5
1B
330
1
100
AcDbSymbolTableRecord
100
AcDbBlockTableRecord
  2
*PAPER_SPACE
  0
ENDTAB
  0
ENDSEC
  0
SECTION
  2
BLOCKS
  0
BLOCK
  5
20
330
1F
100
AcDbEntity
  8
0
100
AcDbBlockBegin
  2
*MODEL_SPACE
 70
     0
 10
0.0
 20
0.0
 30
0.0
  3
*MODEL_SPACE
  1

  0
ENDBLK
  5
21
330
1F
100
AcDbEntity
  8
0
100
AcDbBlockEnd
  0
BLOCK
  5
1C
330
1B
100
AcDbEntity
 67
     1
  8
0
100
AcDbBlockBegin
  2
*PAPER_SPACE
  1

  0
ENDBLK
  5
1D
330
1B
100
AcDbEntity
 67
     1
  8
0
100
AcDbBlockEnd
  0
ENDSEC
  0
SECTION
  2
ENTITIES
  0
LWPOLYLINE
  5
100
100
AcDbEntity
  8
Profile
 62
7
100
AcDbPolyline
 90
159
 70
0
 10
83.795147
 20
249.757254
 30
0.0
 10
80.840251
 20
247.756211
 30
0.0
 10
78.254187
 20
244.737066
 30
0.0
 10
76.103889
 20
241.855738
 30
0.0
 10
73.666656
 20
238.574514
 30
0.0
 10
71.803854
 20
235.028949
 30
0.0
 10
71.242133
 20
233.544864
 30
0.0
 10
70.745225
 20
231.424641
 30
0.0
 10
69.559510
 20
228.205689
 30
0.0
 10
68.740651
 20
226.154234
 30
0.0
 10
67.199096
 20
221.708898
 30
0.0
 10
65.964101
 20
219.144437
 30
0.0
 10
63.787395
 20
215.665947
 30
0.0
 10
61.847494
 20
212.773040
 30
0.0
 10
59.546950
 20
209.824074
 30
0.0
 10
57.463300
 20
207.096802
 30
0.0
 10
55.732245
 20
204.404693
 30
0.0
 10
54.418597
 20
202.525934
 30
0.0
 10
53.274962
 20
200.371821
 30
0.0
 10
52.697850
 20
198.440818
 30
0.0
 10
52.577965
 20
195.828912
 30
0.0
 10
52.326616
 20
193.242989
 30
0.0
 10
52.666219
 20
191.515323
 30
0.0
 10
53.242201
 20
189.748541
 30
0.0
 10
54.162166
 20
187.940950
 30
0.0
 10
55.298458
 20
186.132939
 30
0.0
 10
56.011410
 20
184.720304
 30
0.0
 10
56.947895
 20
182.429074
 30
0.0
 10
57.388884
 20
180.432414
 30
0.0
 10
58.017116
 20
177.930364
 30
0.0
 10
57.960916
 20
176.666704
 30
0.0
 10
57.768591
 20
175.327784
 30
0.0
 10
56.916267
 20
173.236224
 30
0.0
 10
55.960576
 20
170.635194
 30
0.0
 10
54.910421
 20
169.073024
 30
0.0
 10
53.947955
 20
168.060714
 30
0.0
 10
52.542382
 20
166.420874
 30
0.0
 10
50.894496
 20
164.325501
 30
0.0
 10
49.798730
 20
163.162371
 30
0.0
 10
48.632785
 20
162.074931
 30
0.0
 10
47.413887
 20
161.365651
 30
0.0
 10
46.361329
 20
160.594661
 30
0.0
 10
45.753856
 20
159.666081
 30
0.0
 10
44.752700
 20
158.592911
 30
0.0
 10
42.965021
 20
156.505591
 30
0.0
 10
41.793285
 20
155.310981
 30
0.0
 10
41.223375
 20
154.554391
 30
0.0
 10
39.880779
 20
153.663661
 30
0.0
 10
38.264664
 20
152.268111
 30
0.0
 10
36.995921
 20
150.592411
 30
0.0
 10
35.328408
 20
148.973050
 30
0.0
 10
33.762421
 20
147.836330
 30
0.0
 10
32.497774
 20
146.575490
 30
0.0
 10
31.351879
 20
145.208750
 30
0.0
 10
30.078757
 20
143.371080
 30
0.0
 10
28.981297
 20
142.188480
 30
0.0
 10
27.329459
 20
140.216380
 30
0.0
 10
25.271790
 20
138.603090
 30
0.0
 10
23.561209
 20
136.728710
 30
0.0
 10
22.400488
 20
134.841200
 30
0.0
 10
21.973055
 20
133.355700
 30
0.0
 10
21.992825
 20
130.890230
 30
0.0
 10
22.404866
 20
129.471380
 30
0.0
 10
23.396704
 20
127.192580
 30
0.0
 10
24.282354
 20
125.507280
 30
0.0
 10
25.307658
 20
124.486920
 30
0.0
 10
26.633308
 20
123.421650
 30
0.0
 10
28.785019
 20
122.162650
 30
0.0
 10
31.170288
 20
121.299590
 30
0.0
 10
32.636580
 20
120.893200
 30
0.0
 10
34.441345
 20
120.078150
 30
0.0
 10
35.905097
 20
119.227800
 30
0.0
 10
37.643496
 20
118.600560
 30
0.0
 10
38.824408
 20
118.121450
 30
0.0
 10
39.302537
 20
116.242410
 30
0.0
 10
39.744232
 20
114.609210
 30
0.0
 10
40.297055
 20
112.338320
 30
0.0
 10
40.492204
 20
110.311430
 30
0.0
 10
40.608134
 20
107.154190
 30
0.0
 10
40.558714
 20
105.872310
 30
0.0
 10
40.584694
 20
101.620290
 30
0.0
 10
40.522564
 20
99.320310
 30
0.0
 10
40.161500
 20
98.004400
 30
0.0
 10
40.178170
 20
96.869100
 30
0.0
 10
40.561972
 20
96.001940
 30
0.0
 10
41.282548
 20
94.372560
 30
0.0
 10
41.933230
 20
93.430140
 30
0.0
 10
42.927611
 20
92.127080
 30
0.0
 10
44.079435
 20
90.690450
 30
0.0
 10
42.522063
 20
89.280070
 30
0.0
 10
41.616646
 20
88.044790
 30
0.0
 10
40.950573
 20
86.835640
 30
0.0
 10
40.218839
 20
85.146520
 30
0.0
 10
39.411981
 20
83.587310
 30
0.0
 10
38.793213
 20
81.856260
 30
0.0
 10
38.677704
 20
80.900990
 30
0.0
 10
38.542571
 20
79.316090
 30
0.0
 10
38.836139
 20
78.474490
 30
0.0
 10
39.427938
 20
77.518100
 30
0.0
 10
40.660391
 20
76.525270
 30
0.0
 10
42.288648
 20
75.424850
 30
0.0
 10
43.524209
 20
74.939940
 30
0.0
 10
45.510849
 20
73.739400
 30
0.0
 10
46.911482
 20
72.827200
 30
0.0
 10
47.814642
 20
72.002980
 30
0.0
 10
48.327222
 20
71.125090
 30
0.0
 10
48.694501
 20
69.879930
 30
0.0
 10
49.208637
 20
68.646350
 30
0.0
 10
49.757790
 20
67.598730
 30
0.0
 10
50.213747
 20
66.114220
 30
0.0
 10
50.281387
 20
65.696250
 30
0.0
 10
49.398279
 20
64.676880
 30
0.0
 10
48.410960
 20
63.603850
 30
0.0
 10
47.543666
 20
62.215500
 30
0.0
 10
46.751213
 20
60.826870
 30
0.0
 10
46.560443
 20
58.804790
 30
0.0
 10
46.596593
 20
57.638840
 30
0.0
 10
46.524293
 20
55.881100
 30
0.0
 10
45.988128
 20
54.406190
 30
0.0
 10
45.649515
 20
52.417010
 30
0.0
 10
45.294521
 20
51.102660
 30
0.0
 10
45.306801
 20
49.847040
 30
0.0
 10
45.306801
 20
48.168090
 30
0.0
 10
46.186663
 20
46.182580
 30
0.0
 10
47.213944
 20
43.589600
 30
0.0
 10
48.103971
 20
42.299110
 30
0.0
 10
49.080135
 20
41.384650
 30
0.0
 10
51.208830
 20
38.756790
 30
0.0
 10
52.279035
 20
37.837820
 30
0.0
 10
54.796051
 20
36.281290
 30
0.0
 10
55.935590
 20
35.819400
 30
0.0
 10
58.598894
 20
34.819660
 30
0.0
 10
61.128757
 20
34.041180
 30
0.0
 10
64.022934
 20
33.044550
 30
0.0
 10
65.452655
 20
32.838810
 30
0.0
 10
67.216613
 20
32.248560
 30
0.0
 10
68.382698
 20
31.382820
 30
0.0
 10
68.933688
 20
30.335490
 30
0.0
 10
69.685758
 20
29.268670
 30
0.0
 10
70.236041
 20
28.433150
 30
0.0
 10
70.696376
 20
27.508810
 30
0.0
 10
71.481908
 20
25.854710
 30
0.0
 10
71.981217
 20
24.891120
 30
0.0
 10
72.761103
 20
24.015780
 30
0.0
 10
73.929026
 20
22.992590
 30
0.0
 10
75.812727
 20
21.415730
 30
0.0
 10
77.100957
 20
20.595040
 30
0.0
 10
78.426467
 20
19.528640
 30
0.0
 10
79.311270
 20
18.935150
 30
0.0
 10
80.671234
 20
17.427610
 30
0.0
 10
82.211943
 20
15.626800
 30
0.0
 10
83.347669
 20
14.613500
 30
0.0
 10
84.693938
 20
13.402950
 30
0.0
 10
86.242695
 20
11.957990
 30
0.0
 10
87.163929
 20
11.145050
 30
0.0
 10
88.294000
 20
9.695850
 30
0.0
 10
0.132292
 20
9.695850
 30
0.0
 10
0.132292
 20
249.867708
 30
0.0
 10
83.791140
 20
249.867708
 30
0.0
  0
ENDSEC
  0
SECTION
  2
OBJECTS
  0
DICTIONARY
  5
C
330
0
100
AcDbDictionary
  3
ACAD_GROUP
350
D
  3
ACAD_MLINESTYLE
350
17
  0
DICTIONARY
  5
D
330
C
100
AcDbDictionary
  0
DICTIONARY
  5
1A
330
C
100
AcDbDictionary
  0
DICTIONARY
  5
17
330
C
100
AcDbDictionary
  3
STANDARD
350
18
  0
DICTIONARY
  5
19
330
C
100
AcDbDictionary
  0
ENDSEC
  0
EOF
