  0
SECTION
  2
HEADER
  9
$ACADVER
  1
AC1014
  9
$HANDSEED
  5
FFFF
  9
$INSUNITS
 70
     4
  9
$MEASUREMENT
 70
     1
  0
ENDSEC
  0
SECTION
  2
TABLES
  0
TABLE
  2
VPORT
  5
8
330
0
100
AcDbSymbolTable
 70
     4
  0
VPORT
  5
2E
330
8
100
AcDbSymbolTableRecord
100
AcDbViewportTableRecord
  2
*ACTIVE
 70
     0
 10
0.0
 20
0.0
 11
1.0
 21
1.0
 12
210.0
 22
148.5
 13
0.0
 23
0.0
 14
10.0
 24
10.0
 15
10.0
 25
10.0
 16
0.0
 26
0.0
 36
1.0
 17
0.0
 27
0.0
 37
0.0
 40
341.0
 41
1.24
 42
50.0
 43
0.0
 44
0.0
 50
0.0
 51
0.0
 71
     0
 72
   100
 73
     1
 74
     3
 75
     0
 76
     0
 77
     0
 78
     0
  0
ENDTAB
  0
TABLE
  2
LTYPE
  5
5
330
0
100
AcDbSymbolTable
 70
     1
  0
LTYPE
  5
14
330
5
100
AcDbSymbolTableRecord
100
AcDbLinetypeTableRecord
  2
BYBLOCK
 70
     0
  3

 72
    65
 73
     0
 40
0.0
  0
LTYPE
  5
15
330
5
100
AcDbSymbolTableRecord
100
AcDbLinetypeTableRecord
  2
BYLAYER
 70
     0
  3

 72
    65
 73
     0
 40
0.0
  0
LTYPE
  5
16
330
5
100
AcDbSymbolTableRecord
100
AcDbLinetypeTableRecord
  2
CONTINUOUS
 70
     0
  3
Solid line
 72
    65
 73
     0
 40
0.0
  0
ENDTAB
  0
TABLE
  2
LAYER
  5
2
100
AcDbSymbolTable
 70
3
  0
LAYER
  5
50
100
AcDbSymbolTableRecord
100
AcDbLayerTableRecord
  2
0
 70
0
  6
CONTINUOUS
  0
LAYER
  5
51
100
AcDbSymbolTableRecord
100
AcDbLayerTableRecord
  2
Profile
 70
0
  6
CONTINUOUS
  0
LAYER
  5
52
100
AcDbSymbolTableRecord
100
AcDbLayerTableRecord
  2
Layer_1
 70
0
  6
CONTINUOUS
  0
ENDTAB
  0
TABLE
  2
STYLE
  5
3
330
0
100
AcDbSymbolTable
 70
     1
  0
STYLE
  5
11
330
3
100
AcDbSymbolTableRecord
100
AcDbTextStyleTableRecord
  2
STANDARD
 70
     0
 40
0.0
 41
1.0
 50
0.0
 71
     0
 42
2.5
  3
txt
  4

  0
ENDTAB
  0
TABLE
  2
VIEW
  5
6
330
0
100
AcDbSymbolTable
 70
     0
  0
ENDTAB
  0
TABLE
  2
UCS
  5
7
330
0
100
AcDbSymbolTable
 70
     0
  0
ENDTAB
  0
TABLE
  2
APPID
  5
9
330
0
100
AcDbSymbolTable
 70
     2
  0
APPID
  5
12
330
9
100
AcDbSymbolTableRecord
100
AcDbRegAppTableRecord
  2
ACAD
 70
     0
  0
ENDTAB
  0
TABLE
  2
DIMSTYLE
  5
A
330
0
100
AcDbSymbolTable
 70
     1
  0
DIMSTYLE
105
27
330
A
100
AcDbSymbolTableRecord
100
AcDbDimStyleTableRecord
  2
ISO-25
 70
     0
  3

  4

  5

  6

  7

 40
1.0
 41
2.5
 42
0.625
 43
3.75
 44
1.25
 45
0.0
 46
0.0
 47
0.0
 48
0.0
140
2.5
141
2.5
142
0.0
143
0.03937007874016
144
1.0
145
0.0
146
1.0
147
0.625
 71
     0
 72
     0
 73
     0
 74
     0
 75
     0
 76
     0
 77
     1
 78
     8
170
     0
171
     3
172
     1
173
     0
174
     0
175
     0
176
     0
177
     0
178
     0
270
     2
271
     2
272
     2
273
     2
274
     3
340
11
275
     0
280
     0
281
     0
282
     0
283
     0
284
     8
285
     0
286
     0
287
     3
288
     0
  0
ENDTAB
  0
TABLE
  2
BLOCK_RECORD
  5
1
330
0
100
AcDbSymbolTable
 70
     1
  0
BLOCK_RECORD
  5
1F
330
1
100
AcDbSymbolTableRecord
100
AcDbBlockTableRecord
  2
*MODEL_SPACE
  0
BLOCK_RECORD
  5
1B
330
1
100
AcDbSymbolTableRecord
100
AcDbBlockTableRecord
  2
*PAPER_SPACE
  0
ENDTAB
  0
ENDSEC
  0
SECTION
  2
BLOCKS
  0
BLOCK
  5
20
330
1F
100
AcDbEntity
  8
0
100
AcDbBlockBegin
  2
*MODEL_SPACE
 70
     0
 10
0.0
 20
0.0
 30
0.0
  3
*MODEL_SPACE
  1

  0
ENDBLK
  5
21
330
1F
100
AcDbEntity
  8
0
100
AcDbBlockEnd
  0
BLOCK
  5
1C
330
1B
100
AcDbEntity
 67
     1
  8
0
100
AcDbBlockBegin
  2
*PAPER_SPACE
  1

  0
ENDBLK
  5
1D
330
1B
100
AcDbEntity
 67
     1
  8
0
100
AcDbBlockEnd
  0
ENDSEC
  0
SECTION
  2
ENTITIES
  0
LWPOLYLINE
  5
100
100
AcDbEntity
  8
Profile
 62
7
100
AcDbPolyline
 90
139
 70
1
 10
14.816545
 20
43.422464
 30
0.0
 10
14.713211
 20
42.981552
 30
0.0
 10
14.466635
 20
42.312155
 30
0.0
 10
14.296349
 20
41.885545
 30
0.0
 10
13.975775
 20
40.961115
 30
0.0
 10
13.718951
 20
40.427825
 30
0.0
 10
13.266294
 20
39.704455
 30
0.0
 10
12.862882
 20
39.102855
 30
0.0
 10
12.384472
 20
38.489605
 30
0.0
 10
11.951166
 20
37.922455
 30
0.0
 10
11.591184
 20
37.362615
 30
0.0
 10
11.318004
 20
36.971915
 30
0.0
 10
11.080179
 20
36.523954
 30
0.0
 10
10.960166
 20
36.122394
 30
0.0
 10
10.935236
 20
35.579234
 30
0.0
 10
10.882966
 20
35.041484
 30
0.0
 10
10.953586
 20
34.682204
 30
0.0
 10
11.073365
 20
34.314794
 30
0.0
 10
11.264676
 20
33.938894
 30
0.0
 10
11.500974
 20
33.562904
 30
0.0
 10
11.649236
 20
33.269144
 30
0.0
 10
11.843983
 20
32.792674
 30
0.0
 10
11.935693
 20
32.377454
 30
0.0
 10
12.066337
 20
31.857144
 30
0.0
 10
12.054647
 20
31.594354
 30
0.0
 10
12.014657
 20
31.315924
 30
0.0
 10
11.837412
 20
30.880974
 30
0.0
 10
11.638671
 20
30.340074
 30
0.0
 10
11.420286
 20
30.015214
 30
0.0
 10
11.220136
 20
29.804694
 30
0.0
 10
10.927840
 20
29.463684
 30
0.0
 10
10.585153
 20
29.027934
 30
0.0
 10
10.357283
 20
28.786064
 30
0.0
 10
10.114819
 20
28.559924
 30
0.0
 10
9.861342
 20
28.412424
 30
0.0
 10
9.642457
 20
28.252094
 30
0.0
 10
9.516130
 20
28.058984
 30
0.0
 10
9.307935
 20
27.835814
 30
0.0
 10
8.936178
 20
27.401744
 30
0.0
 10
8.692509
 20
27.153324
 30
0.0
 10
8.573994
 20
26.995984
 30
0.0
 10
8.294794
 20
26.810754
 30
0.0
 10
7.958714
 20
26.520544
 30
0.0
 10
7.694873
 20
26.172074
 30
0.0
 10
7.348105
 20
25.835314
 30
0.0
 10
7.022450
 20
25.598934
 30
0.0
 10
6.759460
 20
25.336734
 30
0.0
 10
6.521165
 20
25.052514
 30
0.0
 10
6.256413
 20
24.670354
 30
0.0
 10
6.028190
 20
24.424434
 30
0.0
 10
5.684682
 20
24.014324
 30
0.0
 10
5.256779
 20
23.678834
 30
0.0
 10
4.901055
 20
23.289044
 30
0.0
 10
4.659677
 20
22.896524
 30
0.0
 10
4.570787
 20
22.587604
 30
0.0
 10
4.574887
 20
22.074904
 30
0.0
 10
4.660577
 20
21.779844
 30
0.0
 10
4.866834
 20
21.305953
 30
0.0
 10
5.051010
 20
20.955493
 30
0.0
 10
5.264227
 20
20.743303
 30
0.0
 10
5.539903
 20
20.521773
 30
0.0
 10
5.987362
 20
20.259953
 30
0.0
 10
6.483391
 20
20.080473
 30
0.0
 10
6.788314
 20
19.995973
 30
0.0
 10
7.163625
 20
19.826483
 30
0.0
 10
7.468019
 20
19.649643
 30
0.0
 10
7.829528
 20
19.519213
 30
0.0
 10
8.075105
 20
19.419613
 30
0.0
 10
8.174535
 20
19.028863
 30
0.0
 10
8.266385
 20
18.689233
 30
0.0
 10
8.381348
 20
18.216983
 30
0.0
 10
8.421928
 20
17.795483
 30
0.0
 10
8.446038
 20
17.138923
 30
0.0
 10
8.435758
 20
16.872343
 30
0.0
 10
8.441158
 20
15.988113
 30
0.0
 10
8.428238
 20
15.509823
 30
0.0
 10
8.353148
 20
15.236173
 30
0.0
 10
8.356648
 20
15.000083
 30
0.0
 10
8.436458
 20
14.819753
 30
0.0
 10
8.586305
 20
14.480913
 30
0.0
 10
8.721618
 20
14.284933
 30
0.0
 10
8.928404
 20
14.013953
 30
0.0
 10
9.167932
 20
13.715203
 30
0.0
 10
8.844069
 20
13.421903
 30
0.0
 10
8.655782
 20
13.165023
 30
0.0
 10
8.517269
 20
12.913573
 30
0.0
 10
8.365101
 20
12.562313
 30
0.0
 10
8.197311
 20
12.238063
 30
0.0
 10
8.068635
 20
11.878083
 30
0.0
 10
8.044615
 20
11.679433
 30
0.0
 10
8.016515
 20
11.349843
 30
0.0
 10
8.077565
 20
11.174823
 30
0.0
 10
8.200632
 20
10.975943
 30
0.0
 10
8.456927
 20
10.769473
 30
0.0
 10
8.795532
 20
10.540643
 30
0.0
 10
9.052473
 20
10.439803
 30
0.0
 10
9.465605
 20
10.190143
 30
0.0
 10
9.756873
 20
10.000443
 30
0.0
 10
9.944690
 20
9.829043
 30
0.0
 10
10.051284
 20
9.646483
 30
0.0
 10
10.127664
 20
9.387543
 30
0.0
 10
10.234581
 20
9.131013
 30
0.0
 10
10.348780
 20
8.913153
 30
0.0
 10
10.443600
 20
8.604443
 30
0.0
 10
10.457670
 20
8.517543
 30
0.0
 10
10.274023
 20
8.305563
 30
0.0
 10
10.068705
 20
8.082423
 30
0.0
 10
9.888346
 20
7.793703
 30
0.0
 10
9.723551
 20
7.504933
 30
0.0
 10
9.683881
 20
7.084433
 30
0.0
 10
9.691381
 20
6.841963
 30
0.0
 10
9.676351
 20
6.476433
 30
0.0
 10
9.564853
 20
6.169723
 30
0.0
 10
9.494433
 20
5.756063
 30
0.0
 10
9.420613
 20
5.482733
 30
0.0
 10
9.423213
 20
5.221623
 30
0.0
 10
9.423213
 20
4.872473
 30
0.0
 10
9.606185
 20
4.459573
 30
0.0
 10
9.819813
 20
3.920353
 30
0.0
 10
10.004900
 20
3.651993
 30
0.0
 10
10.207899
 20
3.461823
 30
0.0
 10
10.650572
 20
2.915343
 30
0.0
 10
10.873126
 20
2.724243
 30
0.0
 10
11.396553
 20
2.400553
 30
0.0
 10
11.633526
 20
2.304453
 30
0.0
 10
12.187374
 20
2.096553
 30
0.0
 10
12.713472
 20
1.934663
 30
0.0
 10
13.315331
 20
1.727403
 30
0.0
 10
13.612649
 20
1.684603
 30
0.0
 10
13.979473
 20
1.561853
 30
0.0
 10
14.221966
 20
1.381823
 30
0.0
 10
14.336547
 20
1.164023
 30
0.0
 10
14.492944
 20
0.942173
 30
0.0
 10
14.607378
 20
0.768423
 30
0.0
 10
14.703108
 20
0.576203
 30
0.0
 10
14.866463
 20
0.232223
 30
0.0
 10
14.970297
 20
0.031833
 30
0.0
 10
0.027512
 20
0.040233
 30
0.0
 10
0.028886
 20
43.411287
 30
0.0
  0
ENDSEC
  0
SECTION
  2
OBJECTS
  0
DICTIONARY
  5
C
330
0
100
AcDbDictionary
  3
ACAD_GROUP
350
D
  3
ACAD_MLINESTYLE
350
17
  0
DICTIONARY
  5
D
330
C
100
AcDbDictionary
  0
DICTIONARY
  5
1A
330
C
100
AcDbDictionary
  0
DICTIONARY
  5
17
330
C
100
AcDbDictionary
  3
STANDARD
350
18
  0
DICTIONARY
  5
19
330
C
100
AcDbDictionary
  0
ENDSEC
  0
EOF
