  0
SECTION
  2
HEADER
  9
$ACADVER
  1
AC1014
  9
$HANDSEED
  5
FFFF
  9
$INSUNITS
 70
     4
  9
$MEASUREMENT
 70
     1
  0
ENDSEC
  0
SECTION
  2
TABLES
  0
TABLE
  2
VPORT
  5
8
330
0
100
AcDbSymbolTable
 70
     4
  0
VPORT
  5
2E
330
8
100
AcDbSymbolTableRecord
100
AcDbViewportTableRecord
  2
*ACTIVE
 70
     0
 10
0.0
 20
0.0
 11
1.0
 21
1.0
 12
210.0
 22
148.5
 13
0.0
 23
0.0
 14
10.0
 24
10.0
 15
10.0
 25
10.0
 16
0.0
 26
0.0
 36
1.0
 17
0.0
 27
0.0
 37
0.0
 40
341.0
 41
1.24
 42
50.0
 43
0.0
 44
0.0
 50
0.0
 51
0.0
 71
     0
 72
   100
 73
     1
 74
     3
 75
     0
 76
     0
 77
     0
 78
     0
  0
ENDTAB
  0
TABLE
  2
LTYPE
  5
5
330
0
100
AcDbSymbolTable
 70
     1
  0
LTYPE
  5
14
330
5
100
AcDbSymbolTableRecord
100
AcDbLinetypeTableRecord
  2
BYBLOCK
 70
     0
  3

 72
    65
 73
     0
 40
0.0
  0
LTYPE
  5
15
330
5
100
AcDbSymbolTableRecord
100
AcDbLinetypeTableRecord
  2
BYLAYER
 70
     0
  3

 72
    65
 73
     0
 40
0.0
  0
LTYPE
  5
16
330
5
100
AcDbSymbolTableRecord
100
AcDbLinetypeTableRecord
  2
CONTINUOUS
 70
     0
  3
Solid line
 72
    65
 73
     0
 40
0.0
  0
ENDTAB
  0
TABLE
  2
LAYER
  5
2
100
AcDbSymbolTable
 70
3
  0
LAYER
  5
50
100
AcDbSymbolTableRecord
100
AcDbLayerTableRecord
  2
0
 70
0
  6
CONTINUOUS
  0
LAYER
  5
51
100
AcDbSymbolTableRecord
100
AcDbLayerTableRecord
  2
Profile
 70
0
  6
CONTINUOUS
  0
LAYER
  5
52
100
AcDbSymbolTableRecord
100
AcDbLayerTableRecord
  2
Layer_1
 70
0
  6
CONTINUOUS
  0
ENDTAB
  0
TABLE
  2
STYLE
  5
3
330
0
100
AcDbSymbolTable
 70
     1
  0
STYLE
  5
11
330
3
100
AcDbSymbolTableRecord
100
AcDbTextStyleTableRecord
  2
STANDARD
 70
     0
 40
0.0
 41
1.0
 50
0.0
 71
     0
 42
2.5
  3
txt
  4

  0
ENDTAB
  0
TABLE
  2
VIEW
  5
6
330
0
100
AcDbSymbolTable
 70
     0
  0
ENDTAB
  0
TABLE
  2
UCS
  5
7
330
0
100
AcDbSymbolTable
 70
     0
  0
ENDTAB
  0
TABLE
  2
APPID
  5
9
330
0
100
AcDbSymbolTable
 70
     2
  0
APPID
  5
12
330
9
100
AcDbSymbolTableRecord
100
AcDbRegAppTableRecord
  2
ACAD
 70
     0
  0
ENDTAB
  0
TABLE
  2
DIMSTYLE
  5
A
330
0
100
AcDbSymbolTable
 70
     1
  0
DIMSTYLE
105
27
330
A
100
AcDbSymbolTableRecord
100
AcDbDimStyleTableRecord
  2
ISO-25
 70
     0
  3

  4

  5

  6

  7

 40
1.0
 41
2.5
 42
0.625
 43
3.75
 44
1.25
 45
0.0
 46
0.0
 47
0.0
 48
0.0
140
2.5
141
2.5
142
0.0
143
0.03937007874016
144
1.0
145
0.0
146
1.0
147
0.625
 71
     0
 72
     0
 73
     0
 74
     0
 75
     0
 76
     0
 77
     1
 78
     8
170
     0
171
     3
172
     1
173
     0
174
     0
175
     0
176
     0
177
     0
178
     0
270
     2
271
     2
272
     2
273
     2
274
     3
340
11
275
     0
280
     0
281
     0
282
     0
283
     0
284
     8
285
     0
286
     0
287
     3
288
     0
  0
ENDTAB
  0
TABLE
  2
BLOCK_RECORD
  5
1
330
0
100
AcDbSymbolTable
 70
     1
  0
BLOCK_RECORD
  5
1F
330
1
100
AcDbSymbolTableRecord
100
AcDbBlockTableRecord
  2
*MODEL_SPACE
  0
BLOCK_RECORD
  5
1B
330
1
100
AcDbSymbolTableRecord
100
AcDbBlockTableRecord
  2
*PAPER_SPACE
  0
ENDTAB
  0
ENDSEC
  0
SECTION
  2
BLOCKS
  0
BLOCK
  5
20
330
1F
100
AcDbEntity
  8
0
100
AcDbBlockBegin
  2
*MODEL_SPACE
 70
     0
 10
0.0
 20
0.0
 30
0.0
  3
*MODEL_SPACE
  1

  0
ENDBLK
  5
21
330
1F
100
AcDbEntity
  8
0
100
AcDbBlockEnd
  0
BLOCK
  5
1C
330
1B
100
AcDbEntity
 67
     1
  8
0
100
AcDbBlockBegin
  2
*PAPER_SPACE
  1

  0
ENDBLK
  5
1D
330
1B
100
AcDbEntity
 67
     1
  8
0
100
AcDbBlockEnd
  0
ENDSEC
  0
SECTION
  2
ENTITIES
  0
LWPOLYLINE
  5
100
100
AcDbEntity
  8
Profile
 62
7
100
AcDbPolyline
 90
132
 70
1
 10
11.112400
 20
43.422464
 30
0.0
 10
10.797000
 20
38.489601
 30
0.0
 10
10.363700
 20
37.922451
 30
0.0
 10
10.003700
 20
37.362611
 30
0.0
 10
9.730500
 20
36.971911
 30
0.0
 10
9.492680
 20
36.523951
 30
0.0
 10
9.372670
 20
36.122391
 30
0.0
 10
9.347740
 20
35.579231
 30
0.0
 10
9.295470
 20
35.041481
 30
0.0
 10
9.366090
 20
34.682201
 30
0.0
 10
9.485860
 20
34.314791
 30
0.0
 10
9.677180
 20
33.938891
 30
0.0
 10
9.913470
 20
33.562901
 30
0.0
 10
10.061700
 20
33.269101
 30
0.0
 10
10.256500
 20
32.792701
 30
0.0
 10
10.348200
 20
32.377501
 30
0.0
 10
10.478800
 20
31.857101
 30
0.0
 10
10.467100
 20
31.594401
 30
0.0
 10
10.427200
 20
31.315901
 30
0.0
 10
10.249900
 20
30.881001
 30
0.0
 10
10.051200
 20
30.340101
 30
0.0
 10
9.832790
 20
30.015201
 30
0.0
 10
9.632640
 20
29.804701
 30
0.0
 10
9.340340
 20
29.463701
 30
0.0
 10
8.997650
 20
29.027901
 30
0.0
 10
8.769780
 20
28.786101
 30
0.0
 10
8.527320
 20
28.559901
 30
0.0
 10
8.273840
 20
28.412401
 30
0.0
 10
8.054960
 20
28.252101
 30
0.0
 10
7.928630
 20
28.059001
 30
0.0
 10
7.720430
 20
27.835801
 30
0.0
 10
7.348680
 20
27.401701
 30
0.0
 10
7.105010
 20
27.153301
 30
0.0
 10
6.986490
 20
26.996001
 30
0.0
 10
6.707290
 20
26.810801
 30
0.0
 10
6.371210
 20
26.520501
 30
0.0
 10
6.107370
 20
26.172101
 30
0.0
 10
5.760600
 20
25.835301
 30
0.0
 10
5.434950
 20
25.598901
 30
0.0
 10
5.171960
 20
25.336701
 30
0.0
 10
4.933660
 20
25.052501
 30
0.0
 10
4.668910
 20
24.670401
 30
0.0
 10
4.440690
 20
24.424401
 30
0.0
 10
4.097180
 20
24.014301
 30
0.0
 10
3.669280
 20
23.678801
 30
0.0
 10
3.313550
 20
23.289001
 30
0.0
 10
3.072180
 20
22.896501
 30
0.0
 10
2.983290
 20
22.587601
 30
0.0
 10
2.987390
 20
22.074901
 30
0.0
 10
3.073080
 20
21.779801
 30
0.0
 10
3.279330
 20
21.306000
 30
0.0
 10
3.463510
 20
20.955500
 30
0.0
 10
3.676730
 20
20.743300
 30
0.0
 10
3.952400
 20
20.521800
 30
0.0
 10
4.399860
 20
20.260000
 30
0.0
 10
4.895890
 20
20.080500
 30
0.0
 10
5.200810
 20
19.996000
 30
0.0
 10
5.576120
 20
19.826500
 30
0.0
 10
5.880520
 20
19.649600
 30
0.0
 10
6.242030
 20
19.519200
 30
0.0
 10
6.487600
 20
19.419600
 30
0.0
 10
6.587030
 20
19.028900
 30
0.0
 10
6.678880
 20
18.689200
 30
0.0
 10
6.793850
 20
18.217000
 30
0.0
 10
6.834430
 20
17.795500
 30
0.0
 10
6.858540
 20
17.138900
 30
0.0
 10
6.848260
 20
16.872300
 30
0.0
 10
6.853660
 20
15.988100
 30
0.0
 10
6.840740
 20
15.509800
 30
0.0
 10
6.765650
 20
15.236200
 30
0.0
 10
6.769150
 20
15.000100
 30
0.0
 10
6.848960
 20
14.819800
 30
0.0
 10
6.998800
 20
14.480900
 30
0.0
 10
7.134120
 20
14.284900
 30
0.0
 10
7.340900
 20
14.014000
 30
0.0
 10
7.580430
 20
13.715200
 30
0.0
 10
7.256570
 20
13.421900
 30
0.0
 10
7.068280
 20
13.165000
 30
0.0
 10
6.929770
 20
12.913600
 30
0.0
 10
6.777600
 20
12.562300
 30
0.0
 10
6.609810
 20
12.238100
 30
0.0
 10
6.481130
 20
11.878100
 30
0.0
 10
6.457110
 20
11.679400
 30
0.0
 10
6.429010
 20
11.349800
 30
0.0
 10
6.490060
 20
11.174800
 30
0.0
 10
6.613130
 20
10.975900
 30
0.0
 10
6.869430
 20
10.769500
 30
0.0
 10
7.208030
 20
10.540600
 30
0.0
 10
7.464970
 20
10.439800
 30
0.0
 10
7.878100
 20
10.190100
 30
0.0
 10
8.169370
 20
10.000400
 30
0.0
 10
8.357190
 20
9.829000
 30
0.0
 10
8.463780
 20
9.646500
 30
0.0
 10
8.540160
 20
9.387500
 30
0.0
 10
8.647080
 20
9.131000
 30
0.0
 10
8.761280
 20
8.913200
 30
0.0
 10
8.856100
 20
8.604400
 30
0.0
 10
8.870170
 20
8.517500
 30
0.0
 10
8.686520
 20
8.305600
 30
0.0
 10
8.481210
 20
8.082400
 30
0.0
 10
8.300850
 20
7.793700
 30
0.0
 10
8.136050
 20
7.504900
 30
0.0
 10
8.096380
 20
7.084400
 30
0.0
 10
8.103880
 20
6.842000
 30
0.0
 10
8.088850
 20
6.476400
 30
0.0
 10
7.977350
 20
6.169700
 30
0.0
 10
7.906930
 20
5.756100
 30
0.0
 10
7.833110
 20
5.482700
 30
0.0
 10
7.835710
 20
5.221600
 30
0.0
 10
7.835710
 20
4.872500
 30
0.0
 10
8.018690
 20
4.459600
 30
0.0
 10
8.232310
 20
3.920400
 30
0.0
 10
8.417400
 20
3.652000
 30
0.0
 10
8.620400
 20
3.461800
 30
0.0
 10
9.063070
 20
2.915300
 30
0.0
 10
9.285630
 20
2.724200
 30
0.0
 10
9.809050
 20
2.400600
 30
0.0
 10
10.046000
 20
2.304500
 30
0.0
 10
10.599900
 20
2.096600
 30
0.0
 10
11.126000
 20
1.934700
 30
0.0
 10
11.727800
 20
1.727400
 30
0.0
 10
12.025100
 20
1.684600
 30
0.0
 10
12.392000
 20
1.561900
 30
0.0
 10
12.634500
 20
1.381800
 30
0.0
 10
12.749000
 20
1.164000
 30
0.0
 10
12.905400
 20
0.942200
 30
0.0
 10
13.019900
 20
0.768400
 30
0.0
 10
13.115600
 20
0.576200
 30
0.0
 10
13.279000
 20
0.232200
 30
0.0
 10
13.382800
 20
0.031800
 30
0.0
 10
0.027512
 20
0.040200
 30
0.0
 10
0.028882
 20
43.411287
 30
0.0
  0
ENDSEC
  0
SECTION
  2
OBJECTS
  0
DICTIONARY
  5
C
330
0
100
AcDbDictionary
  3
ACAD_GROUP
350
D
  3
ACAD_MLINESTYLE
350
17
  0
DICTIONARY
  5
D
330
C
100
AcDbDictionary
  0
DICTIONARY
  5
1A
330
C
100
AcDbDictionary
  0
DICTIONARY
  5
17
330
C
100
AcDbDictionary
  3
STANDARD
350
18
  0
DICTIONARY
  5
19
330
C
100
AcDbDictionary
  0
ENDSEC
  0
EOF
