  0
SECTION
  2
HEADER
  9
$ACADVER
  1
AC1014
  9
$HANDSEED
  5
FFFF
  9
$INSUNITS
 70
     4
  9
$MEASUREMENT
 70
     1
  0
ENDSEC
  0
SECTION
  2
TABLES
  0
TABLE
  2
VPORT
  5
8
330
0
100
AcDbSymbolTable
 70
     4
  0
VPORT
  5
2E
330
8
100
AcDbSymbolTableRecord
100
AcDbViewportTableRecord
  2
*ACTIVE
 70
     0
 10
0.0
 20
0.0
 11
1.0
 21
1.0
 12
210.0
 22
148.5
 13
0.0
 23
0.0
 14
10.0
 24
10.0
 15
10.0
 25
10.0
 16
0.0
 26
0.0
 36
1.0
 17
0.0
 27
0.0
 37
0.0
 40
341.0
 41
1.24
 42
50.0
 43
0.0
 44
0.0
 50
0.0
 51
0.0
 71
     0
 72
   100
 73
     1
 74
     3
 75
     0
 76
     0
 77
     0
 78
     0
  0
ENDTAB
  0
TABLE
  2
LTYPE
  5
5
330
0
100
AcDbSymbolTable
 70
     1
  0
LTYPE
  5
14
330
5
100
AcDbSymbolTableRecord
100
AcDbLinetypeTableRecord
  2
BYBLOCK
 70
     0
  3

 72
    65
 73
     0
 40
0.0
  0
LTYPE
  5
15
330
5
100
AcDbSymbolTableRecord
100
AcDbLinetypeTableRecord
  2
BYLAYER
 70
     0
  3

 72
    65
 73
     0
 40
0.0
  0
LTYPE
  5
16
330
5
100
AcDbSymbolTableRecord
100
AcDbLinetypeTableRecord
  2
CONTINUOUS
 70
     0
  3
Solid line
 72
    65
 73
     0
 40
0.0
  0
ENDTAB
  0
TABLE
  2
LAYER
  5
2
100
AcDbSymbolTable
 70
3
  0
LAYER
  5
50
100
AcDbSymbolTableRecord
100
AcDbLayerTableRecord
  2
0
 70
0
  6
CONTINUOUS
  0
LAYER
  5
51
100
AcDbSymbolTableRecord
100
AcDbLayerTableRecord
  2
Profile
 70
0
  6
CONTINUOUS
  0
LAYER
  5
52
100
AcDbSymbolTableRecord
100
AcDbLayerTableRecord
  2
Layer_1
 70
0
  6
CONTINUOUS
  0
ENDTAB
  0
TABLE
  2
STYLE
  5
3
330
0
100
AcDbSymbolTable
 70
     1
  0
STYLE
  5
11
330
3
100
AcDbSymbolTableRecord
100
AcDbTextStyleTableRecord
  2
STANDARD
 70
     0
 40
0.0
 41
1.0
 50
0.0
 71
     0
 42
2.5
  3
txt
  4

  0
ENDTAB
  0
TABLE
  2
VIEW
  5
6
330
0
100
AcDbSymbolTable
 70
     0
  0
ENDTAB
  0
TABLE
  2
UCS
  5
7
330
0
100
AcDbSymbolTable
 70
     0
  0
ENDTAB
  0
TABLE
  2
APPID
  5
9
330
0
100
AcDbSymbolTable
 70
     2
  0
APPID
  5
12
330
9
100
AcDbSymbolTableRecord
100
AcDbRegAppTableRecord
  2
ACAD
 70
     0
  0
ENDTAB
  0
TABLE
  2
DIMSTYLE
  5
A
330
0
100
AcDbSymbolTable
 70
     1
  0
DIMSTYLE
105
27
330
A
100
AcDbSymbolTableRecord
100
AcDbDimStyleTableRecord
  2
ISO-25
 70
     0
  3

  4

  5

  6

  7

 40
1.0
 41
2.5
 42
0.625
 43
3.75
 44
1.25
 45
0.0
 46
0.0
 47
0.0
 48
0.0
140
2.5
141
2.5
142
0.0
143
0.03937007874016
144
1.0
145
0.0
146
1.0
147
0.625
 71
     0
 72
     0
 73
     0
 74
     0
 75
     0
 76
     0
 77
     1
 78
     8
170
     0
171
     3
172
     1
173
     0
174
     0
175
     0
176
     0
177
     0
178
     0
270
     2
271
     2
272
     2
273
     2
274
     3
340
11
275
     0
280
     0
281
     0
282
     0
283
     0
284
     8
285
     0
286
     0
287
     3
288
     0
  0
ENDTAB
  0
TABLE
  2
BLOCK_RECORD
  5
1
330
0
100
AcDbSymbolTable
 70
     1
  0
BLOCK_RECORD
  5
1F
330
1
100
AcDbSymbolTableRecord
100
AcDbBlockTableRecord
  2
*MODEL_SPACE
  0
BLOCK_RECORD
  5
1B
330
1
100
AcDbSymbolTableRecord
100
AcDbBlockTableRecord
  2
*PAPER_SPACE
  0
ENDTAB
  0
ENDSEC
  0
SECTION
  2
BLOCKS
  0
BLOCK
  5
20
330
1F
100
AcDbEntity
  8
0
100
AcDbBlockBegin
  2
*MODEL_SPACE
 70
     0
 10
0.0
 20
0.0
 30
0.0
  3
*MODEL_SPACE
  1

  0
ENDBLK
  5
21
330
1F
100
AcDbEntity
  8
0
100
AcDbBlockEnd
  0
BLOCK
  5
1C
330
1B
100
AcDbEntity
 67
     1
  8
0
100
AcDbBlockBegin
  2
*PAPER_SPACE
  1

  0
ENDBLK
  5
1D
330
1B
100
AcDbEntity
 67
     1
  8
0
100
AcDbBlockEnd
  0
ENDSEC
  0
SECTION
  2
ENTITIES
  0
LWPOLYLINE
  5
100
100
AcDbEntity
  8
Profile
 62
7
100
AcDbPolyline
 90
50
 70
1
 10
12.049770
 20
46.944777
 30
0.0
 10
11.998680
 20
46.326237
 30
0.0
 10
10.712663
 20
45.093367
 30
0.0
 10
10.002380
 20
43.726067
 30
0.0
 10
10.345551
 20
42.441672
 30
0.0
 10
11.053247
 20
41.157277
 30
0.0
 10
10.684547
 20
39.058127
 30
0.0
 10
10.041147
 20
36.111038
 30
0.0
 10
9.767781
 20
33.909538
 30
0.0
 10
10.057047
 20
32.307738
 30
0.0
 10
10.251447
 20
31.209838
 30
0.0
 10
10.612747
 20
30.237938
 30
0.0
 10
10.737247
 20
28.674238
 30
0.0
 10
10.500247
 20
27.768338
 30
0.0
 10
9.554070
 20
25.706238
 30
0.0
 10
8.536960
 20
24.485138
 30
0.0
 10
7.305840
 20
22.503338
 30
0.0
 10
6.731520
 20
21.741738
 30
0.0
 10
5.842120
 20
20.901938
 30
0.0
 10
4.965310
 20
20.166138
 30
0.0
 10
4.680380
 20
19.470138
 30
0.0
 10
4.342370
 20
18.733538
 30
0.0
 10
4.263910
 20
18.133438
 30
0.0
 10
4.555970
 20
17.522038
 30
0.0
 10
5.202350
 20
17.034238
 30
0.0
 10
5.754270
 20
16.373638
 30
0.0
 10
6.394970
 20
16.153038
 30
0.0
 10
6.980540
 20
15.935238
 30
0.0
 10
8.050300
 20
15.779938
 30
0.0
 10
9.118509
 20
15.730838
 30
0.0
 10
9.470859
 20
14.476938
 30
0.0
 10
9.365149
 20
13.426438
 30
0.0
 10
8.812610
 20
12.572838
 30
0.0
 10
8.908930
 20
11.901438
 30
0.0
 10
9.309599
 20
11.529238
 30
0.0
 10
10.160647
 20
11.108138
 30
0.0
 10
9.787500
 20
10.595638
 30
0.0
 10
9.372169
 20
10.172638
 30
0.0
 10
9.345739
 20
9.687738
 30
0.0
 10
9.616530
 20
9.152538
 30
0.0
 10
10.249947
 20
8.582738
 30
0.0
 10
10.725447
 20
6.822338
 30
0.0
 10
9.999651
 20
5.324738
 30
0.0
 10
9.900851
 20
4.156138
 30
0.0
 10
10.137647
 20
3.088338
 30
0.0
 10
10.792247
 20
1.558438
 30
0.0
 10
11.909047
 20
0.758638
 30
0.0
 10
13.221447
 20
0.038838
 30
0.0
 10
0.039908
 20
0.038838
 30
0.0
 10
0.038982
 20
46.952287
 30
0.0
  0
ENDSEC
  0
SECTION
  2
OBJECTS
  0
DICTIONARY
  5
C
330
0
100
AcDbDictionary
  3
ACAD_GROUP
350
D
  3
ACAD_MLINESTYLE
350
17
  0
DICTIONARY
  5
D
330
C
100
AcDbDictionary
  0
DICTIONARY
  5
1A
330
C
100
AcDbDictionary
  0
DICTIONARY
  5
17
330
C
100
AcDbDictionary
  3
STANDARD
350
18
  0
DICTIONARY
  5
19
330
C
100
AcDbDictionary
  0
ENDSEC
  0
EOF
