  0
SECTION
  2
HEADER
  9
$ACADVER
  1
AC1014
  9
$HANDSEED
  5
FFFF
  9
$INSUNITS
 70
     4
  9
$MEASUREMENT
 70
     1
  0
ENDSEC
  0
SECTION
  2
TABLES
  0
TABLE
  2
VPORT
  5
8
330
0
100
AcDbSymbolTable
 70
     4
  0
VPORT
  5
2E
330
8
100
AcDbSymbolTableRecord
100
AcDbViewportTableRecord
  2
*ACTIVE
 70
     0
 10
0.0
 20
0.0
 11
1.0
 21
1.0
 12
210.0
 22
148.5
 13
0.0
 23
0.0
 14
10.0
 24
10.0
 15
10.0
 25
10.0
 16
0.0
 26
0.0
 36
1.0
 17
0.0
 27
0.0
 37
0.0
 40
341.0
 41
1.24
 42
50.0
 43
0.0
 44
0.0
 50
0.0
 51
0.0
 71
     0
 72
   100
 73
     1
 74
     3
 75
     0
 76
     0
 77
     0
 78
     0
  0
ENDTAB
  0
TABLE
  2
LTYPE
  5
5
330
0
100
AcDbSymbolTable
 70
     1
  0
LTYPE
  5
14
330
5
100
AcDbSymbolTableRecord
100
AcDbLinetypeTableRecord
  2
BYBLOCK
 70
     0
  3

 72
    65
 73
     0
 40
0.0
  0
LTYPE
  5
15
330
5
100
AcDbSymbolTableRecord
100
AcDbLinetypeTableRecord
  2
BYLAYER
 70
     0
  3

 72
    65
 73
     0
 40
0.0
  0
LTYPE
  5
16
330
5
100
AcDbSymbolTableRecord
100
AcDbLinetypeTableRecord
  2
CONTINUOUS
 70
     0
  3
Solid line
 72
    65
 73
     0
 40
0.0
  0
ENDTAB
  0
TABLE
  2
LAYER
  5
2
100
AcDbSymbolTable
 70
3
  0
LAYER
  5
50
100
AcDbSymbolTableRecord
100
AcDbLayerTableRecord
  2
0
 70
0
  6
CONTINUOUS
  0
LAYER
  5
51
100
AcDbSymbolTableRecord
100
AcDbLayerTableRecord
  2
Profile
 70
0
  6
CONTINUOUS
  0
LAYER
  5
52
100
AcDbSymbolTableRecord
100
AcDbLayerTableRecord
  2
Layer_1
 70
0
  6
CONTINUOUS
  0
ENDTAB
  0
TABLE
  2
STYLE
  5
3
330
0
100
AcDbSymbolTable
 70
     1
  0
STYLE
  5
11
330
3
100
AcDbSymbolTableRecord
100
AcDbTextStyleTableRecord
  2
STANDARD
 70
     0
 40
0.0
 41
1.0
 50
0.0
 71
     0
 42
2.5
  3
txt
  4

  0
ENDTAB
  0
TABLE
  2
VIEW
  5
6
330
0
100
AcDbSymbolTable
 70
     0
  0
ENDTAB
  0
TABLE
  2
UCS
  5
7
330
0
100
AcDbSymbolTable
 70
     0
  0
ENDTAB
  0
TABLE
  2
APPID
  5
9
330
0
100
AcDbSymbolTable
 70
     2
  0
APPID
  5
12
330
9
100
AcDbSymbolTableRecord
100
AcDbRegAppTableRecord
  2
ACAD
 70
     0
  0
ENDTAB
  0
TABLE
  2
DIMSTYLE
  5
A
330
0
100
AcDbSymbolTable
 70
     1
  0
DIMSTYLE
105
27
330
A
100
AcDbSymbolTableRecord
100
AcDbDimStyleTableRecord
  2
ISO-25
 70
     0
  3

  4

  5

  6

  7

 40
1.0
 41
2.5
 42
0.625
 43
3.75
 44
1.25
 45
0.0
 46
0.0
 47
0.0
 48
0.0
140
2.5
141
2.5
142
0.0
143
0.03937007874016
144
1.0
145
0.0
146
1.0
147
0.625
 71
     0
 72
     0
 73
     0
 74
     0
 75
     0
 76
     0
 77
     1
 78
     8
170
     0
171
     3
172
     1
173
     0
174
     0
175
     0
176
     0
177
     0
178
     0
270
     2
271
     2
272
     2
273
     2
274
     3
340
11
275
     0
280
     0
281
     0
282
     0
283
     0
284
     8
285
     0
286
     0
287
     3
288
     0
  0
ENDTAB
  0
TABLE
  2
BLOCK_RECORD
  5
1
330
0
100
AcDbSymbolTable
 70
     1
  0
BLOCK_RECORD
  5
1F
330
1
100
AcDbSymbolTableRecord
100
AcDbBlockTableRecord
  2
*MODEL_SPACE
  0
BLOCK_RECORD
  5
1B
330
1
100
AcDbSymbolTableRecord
100
AcDbBlockTableRecord
  2
*PAPER_SPACE
  0
ENDTAB
  0
ENDSEC
  0
SECTION
  2
BLOCKS
  0
BLOCK
  5
20
330
1F
100
AcDbEntity
  8
0
100
AcDbBlockBegin
  2
*MODEL_SPACE
 70
     0
 10
0.0
 20
0.0
 30
0.0
  3
*MODEL_SPACE
  1

  0
ENDBLK
  5
21
330
1F
100
AcDbEntity
  8
0
100
AcDbBlockEnd
  0
BLOCK
  5
1C
330
1B
100
AcDbEntity
 67
     1
  8
0
100
AcDbBlockBegin
  2
*PAPER_SPACE
  1

  0
ENDBLK
  5
1D
330
1B
100
AcDbEntity
 67
     1
  8
0
100
AcDbBlockEnd
  0
ENDSEC
  0
SECTION
  2
ENTITIES
  0
LWPOLYLINE
  5
100
100
AcDbEntity
  8
Profile
 62
7
100
AcDbPolyline
 90
53
 70
1
 10
83.418338
 20
5.536590
 30
0.0
 10
0.132292
 20
5.536590
 30
0.0
 10
0.132292
 20
199.867708
 30
0.0
 10
52.375336
 20
199.867708
 30
0.0
 10
49.748058
 20
195.805474
 30
0.0
 10
46.056345
 20
191.441775
 30
0.0
 10
42.682172
 20
186.602318
 30
0.0
 10
38.909703
 20
177.510248
 30
0.0
 10
37.604834
 20
170.080415
 30
0.0
 10
35.327613
 20
159.649492
 30
0.0
 10
34.360013
 20
151.857175
 30
0.0
 10
35.383887
 20
146.187879
 30
0.0
 10
36.071949
 20
142.301769
 30
0.0
 10
37.350874
 20
138.861820
 30
0.0
 10
37.791556
 20
133.327358
 30
0.0
 10
36.952581
 20
130.120908
 30
0.0
 10
33.603620
 20
122.822258
 30
0.0
 10
30.003625
 20
118.500218
 30
0.0
 10
25.646140
 20
111.485858
 30
0.0
 10
23.613378
 20
108.790238
 30
0.0
 10
20.465392
 20
105.817648
 30
0.0
 10
17.361985
 20
103.213388
 30
0.0
 10
16.353460
 20
100.749818
 30
0.0
 10
15.157116
 20
98.142630
 30
0.0
 10
14.879406
 20
96.018880
 30
0.0
 10
15.913145
 20
93.854940
 30
0.0
 10
18.200961
 20
92.128390
 30
0.0
 10
20.154430
 20
89.790150
 30
0.0
 10
22.422149
 20
89.009270
 30
0.0
 10
24.494741
 20
88.238260
 30
0.0
 10
28.281095
 20
87.688690
 30
0.0
 10
32.061967
 20
87.514750
 30
0.0
 10
33.309101
 20
83.076880
 30
0.0
 10
32.934925
 20
79.358490
 30
0.0
 10
30.979263
 20
76.337300
 30
0.0
 10
31.320189
 20
73.961060
 30
0.0
 10
32.738334
 20
72.643760
 30
0.0
 10
35.750391
 20
71.153270
 30
0.0
 10
34.429808
 20
69.339020
 30
0.0
 10
32.959772
 20
67.841940
 30
0.0
 10
32.866232
 20
66.125620
 30
0.0
 10
33.824695
 20
64.231350
 30
0.0
 10
36.066470
 20
62.214670
 30
0.0
 10
37.749538
 20
55.983740
 30
0.0
 10
35.180722
 20
50.683140
 30
0.0
 10
34.831027
 20
46.547090
 30
0.0
 10
35.669272
 20
42.767680
 30
0.0
 10
37.985956
 20
37.352700
 30
0.0
 10
41.938934
 20
34.521890
 30
0.0
 10
46.730890
 20
32.194610
 30
0.0
 10
53.540990
 20
32.256010
 30
0.0
 10
69.118680
 20
22.208030
 30
0.0
 10
76.701617
 20
13.800370
 30
0.0
  0
ENDSEC
  0
SECTION
  2
OBJECTS
  0
DICTIONARY
  5
C
330
0
100
AcDbDictionary
  3
ACAD_GROUP
350
D
  3
ACAD_MLINESTYLE
350
17
  0
DICTIONARY
  5
D
330
C
100
AcDbDictionary
  0
DICTIONARY
  5
1A
330
C
100
AcDbDictionary
  0
DICTIONARY
  5
17
330
C
100
AcDbDictionary
  3
STANDARD
350
18
  0
DICTIONARY
  5
19
330
C
100
AcDbDictionary
  0
ENDSEC
  0
EOF
