<?xml version="1.0" encoding="UTF-8" standalone="no"?>
<!-- Created with Inkscape (http://www.inkscape.org/) -->

<svg
   width="140.85966mm"
   height="177.36809mm"
   viewBox="0 0 140.85966 177.36809"
   version="1.1"
   id="svg5"
   xml:space="preserve"
   inkscape:version="1.2.2 (b0a8486541, 2022-12-01)"
   sodipodi:docname="explorer.svg"
   xmlns:inkscape="http://www.inkscape.org/namespaces/inkscape"
   xmlns:sodipodi="http://sodipodi.sourceforge.net/DTD/sodipodi-0.dtd"
   xmlns="http://www.w3.org/2000/svg"
   xmlns:svg="http://www.w3.org/2000/svg"><sodipodi:namedview
     id="namedview7"
     pagecolor="#ffffff"
     bordercolor="#666666"
     borderopacity="1.0"
     inkscape:showpageshadow="2"
     inkscape:pageopacity="0.0"
     inkscape:pagecheckerboard="0"
     inkscape:deskcolor="#d1d1d1"
     inkscape:document-units="mm"
     showgrid="false"
     inkscape:zoom="0.914906"
     inkscape:cx="395.12256"
     inkscape:cy="557.43431"
     inkscape:window-width="2560"
     inkscape:window-height="1371"
     inkscape:window-x="0"
     inkscape:window-y="0"
     inkscape:window-maximized="1"
     inkscape:current-layer="layer1" /><defs
     id="defs2" /><g
     inkscape:label="Layer 1"
     inkscape:groupmode="layer"
     id="layer1"
     transform="translate(-0.88078109,-0.75191624)"><path
       style="fill:#f6f6f6;stroke-width:0.352778"
       d="m 22.296824,177.87162 c -1.65482,-0.16261 -2.45053,-0.45267 -3.48158,-1.26912 -0.73508,-0.58208 -1.73164,-1.29688 -2.21457,-1.58845 -1.16521,-0.70347 -3.01969,-4.13969 -2.95052,-5.4671 0.12682,-2.43386 0.50154,-4.99637 0.78051,-5.33752 0.17928,-0.21925 0.81604,-1.80675 1.41503,-3.52778 2.62236,-7.53466 3.76156,-10.96458 3.98643,-12.00233 0.13254,-0.61164 0.54927,-1.71677 0.92607,-2.45584 0.3768,-0.73907 0.68509,-1.54588 0.68509,-1.79291 0,-0.24702 0.77291,-2.63439 1.71759,-5.30526 0.94467,-2.67088 1.9796,-5.64989 2.29984,-6.62003 1.28146,-3.882 5.22121,-15.91249 5.39502,-16.4743 0.16998,-0.54947 -0.51427,-0.6119 -8.2295,-0.75076 -10.29891,-0.18536 -12.9461203,-0.58445 -16.5287803,-2.49186 -0.58208,-0.3099 -1.22455,-0.56443 -1.42771,-0.56563 -0.20316,-0.001 -0.94944,-0.59748 -1.65841,-1.32509 -0.99687,-1.02306 -1.38561,-1.80268 -1.71508,-3.43958 -0.73164003,-3.63491 -0.43967003,-12.539105 0.42874,-13.075815 0.17354,-0.10725 0.31552,-0.70207 0.31552,-1.32183 0,-2.65407 3.12824,-11.18627 4.66463,-12.72266 0.56062,-0.56062 0.94361,-1.21658 0.85109,-1.4577 -0.0925,-0.24111 0.0244,-0.81532 0.25977,-1.27603 0.2354,-0.4607 0.64804,-1.39326 0.91698,-2.07236 0.70354,-1.77648 2.2137403,-3.60332 3.9596603,-4.78988 0.83433,-0.56703 1.75548,-1.30112 2.047,-1.63132 0.29152,-0.33021 2.2817,-1.52083 4.42262,-2.64584 2.14092,-1.125 4.58674,-2.49972 5.43515,-3.05493 0.84841,-0.55521 1.7212,-1.03569 1.93952,-1.06773 0.21832,-0.032 0.86812,-0.37983 1.44401,-0.77285 0.57588,-0.39303 2.07894,-1.24672 3.34012,-1.89709 1.26118,-0.65036 2.71444,-1.4755 3.22946,-1.83364 0.51502,-0.35814 1.08573,-0.65117 1.26824,-0.65117 0.47586,0 1.37506,-1.10015 1.65796,-2.02847 0.21136,-0.69358 0.11547,-0.79375 -0.75984,-0.79375 -0.58068,0 -1.51743,-0.42385 -2.22864,-1.0084 -0.67479,-0.55462 -2.12277,-1.43126 -3.21773,-1.94809 -2.41897,-1.14177 -3.83001,-2.21105 -3.83001,-2.90236 0,-0.28379 -0.26147,-0.91503 -0.58104,-1.40276 -1.25449,-1.91459 -0.41164,-7.90784 1.1121,-7.90784 0.28212,0 0.85176,-0.67468 1.26587,-1.4993 0.94261,-1.87699 4.29956,-5.20347 5.25114,-5.20347 1.04753,0 1.02557,-0.0979 -1.58245,-7.05646 -0.50556,-1.3489 -0.45984,-4.96855 0.0913,-7.23105 1.08234,-4.44279 4.80858,-7.63574 9.69711,-8.3092897 4.48713,-0.61825 4.99451,-0.71655 5.38911,-1.04403 0.22163,-0.18394 1.61233,-0.5143 3.09045,-0.73414 2.07212,-0.30819 2.93224,-0.61823 3.75636,-1.354 0.58788,-0.52486 1.49998,-1.18149 2.0269,-1.45919 0.52691,-0.2777 1.57461,-1.17088 2.32821,-1.98485 1.92565,-2.07991 3.55238,-2.50881001 9.7266,-2.56448001 2.78255,-0.0251 5.24318,0.0928 5.46805,0.26195001 0.22488,0.16916 1.05337,0.49143 1.84111,0.71617 0.78772,0.22473 1.80759,0.80815 2.26635,1.29649 0.45877,0.48833 0.95163,0.88787 1.09526,0.88787 0.14363,0 1.9019,0.88154 3.90726,1.95898 3.74416,2.01166 4.42146,2.16617 7.70305,1.75726 0.87313,-0.1088 3.01625,-0.34467 4.7625,-0.52417 1.74625,-0.1795 3.79758,-0.43607 4.558506,-0.57016 0.76093,-0.13409 2.50128,-0.044 3.86744,0.2001 2.17993,0.38958 2.77747,0.68107 4.88238,2.38176 1.40048,1.1315397 2.47014,2.2869097 2.57075,2.7767697 0.0948,0.4614 0.25053,1.21915 0.34614,1.68389 0.0956,0.46474 -0.054,1.37755 -0.33235,2.02847 -0.6179,1.44467 -3.48904,5.32613 -6.45606,8.72787 l -2.20486,2.52791 v 3.18611 c 0,3.78458 -0.38585,5.59886 -1.94446,9.14299 -0.63995,1.45521 -1.362336,3.17554 -1.605296,3.82296 -0.25319,0.67469 -0.98493,1.52002 -1.71437,1.98049 -0.69994,0.44185 -1.48816,1.06309 -1.75161,1.38052 -0.40833,0.49201 -0.39855,0.57715 0.0663,0.57715 0.29991,0 1.02753,0.40577 1.61693,0.90172 0.85166,0.71663 1.21066,0.82732 1.74891,0.53925 0.914116,-0.48922 3.481136,-1.32173 4.994696,-1.61983 0.67909,-0.13375 1.60558,-0.47834 2.05884,-0.76575 0.45327,-0.28742 1.57685,-0.74611 2.49685,-1.01932 0.92,-0.27321 2.45414,-0.91354 3.40921,-1.42294 0.95506,-0.50941 2.60961,-1.15092 3.67676,-1.42559 1.06715,-0.27466 2.77806,-0.89173 3.80201,-1.37125 1.02395,-0.47952 2.10109,-0.87185 2.39366,-0.87185 0.29256,0 0.88353,-0.22828 1.31327,-0.50729 1.31136,-0.85141 6.10734,-1.96245 8.44777,-1.95702 3.2344,0.008 7.32662,1.66878 7.32662,2.9743 0,0.25407 0.23483,0.65684 0.52185,0.89505 1.1235,0.93242 1.59482,2.56622 1.59482,5.52833 0,1.72775 -0.14577,2.94441 -0.35278,2.94441 -0.19403,0 -0.35278,0.24749 -0.35278,0.54999 0,0.30249 0.15875,0.45187 0.35278,0.33195 0.48073,-0.2971 0.44649,1.10193 -0.0502,2.05167 -1.2704,2.42914 -2.89763,4.4154 -4.23142,5.16504 -0.81814,0.45982 -2.7057,1.80229 -4.19457,2.98327 -1.48886,1.18099 -3.72299,2.89819 -4.96472,3.81601 -1.24173,0.91782 -3.15231,2.34657 -4.24574,3.175 -1.09343,0.82843 -2.9008,2.14124 -4.01638,2.91735 -1.11559,0.77611 -2.84034,2.09871 -3.83279,2.93912 -0.99244,0.8404 -2.28069,1.77519 -2.86278,2.07729 -0.58208,0.30212 -1.7727,1.13699 -2.64583,1.85527 -0.87312,0.71829 -2.89956,2.21932 -4.5032,3.33564 -1.60364,1.11631 -3.07208,2.32184 -3.2632,2.67894 -0.20347,0.3802 -0.34749,4.58906 -0.34749,10.15541 v 9.506115 l 1.2569,3.47224 c 0.6913,1.90974 1.41422,3.6618 1.6065,3.89348 0.38216,0.46048 2.56066,5.45855 3.36118,7.7115 0.27577,0.77611 0.72651,1.88736 1.00164,2.46944 0.71766,1.5183 2.68108,5.87152 3.02315,6.70278 0.15968,0.38806 0.53544,1.59335 0.83501,2.67844 0.29957,1.08508 0.83932,2.35508 1.19944,2.82222 1.07601,1.39577 2.82347,5.09681 3.09205,6.54884 0.13796,0.74583 0.6242,1.90885 1.08054,2.58448 0.45634,0.67563 0.8297,1.39183 0.8297,1.59155 0,0.19972 1.34667,3.06006 2.9926,6.3563 1.64592,3.29625 2.9953,6.18736 2.99861,6.42471 0.006,0.42282 0.21195,0.90628 2.52259,5.91846 1.35871,2.94728 1.66471,5.47653 0.88759,7.33643 -0.69916,1.67334 -2.83069,2.65758 -6.21581,2.87017 -1.31767,0.0828 -3.01003,0.31351 -3.76081,0.51281 -0.78273,0.20776 -8.43819,0.44941 -17.9456,0.56646 -16.221376,0.1997 -16.605456,0.18864 -17.730306,-0.51056 -1.25468,-0.77992 -2.551,-2.63782 -2.55309,-3.65912 -7.1e-4,-0.35471 -0.54877,-1.78346 -1.21787,-3.175 -0.6691,-1.39154 -1.44709,-3.4032 -1.72886,-4.47035 -0.28177,-1.06716 -1.0042,-2.97216 -1.60539,-4.23334 -0.6012,-1.26118 -1.09321,-2.56247 -1.09337,-2.89175 -1.5e-4,-0.32928 -0.39715,-1.34511 -0.88222,-2.2574 -0.48507,-0.91229 -0.88194,-1.91724 -0.88194,-2.23323 0,-0.31598 -0.21554,-0.88765 -0.47897,-1.27037 -0.26344,-0.38272 -0.68246,-1.32097 -0.93116,-2.085 -0.55755,-1.71282 -2.1732,-4.509 -2.7084,-4.68741 -0.21775,-0.0726 -0.68298,0.62995 -1.03385,1.56118 -0.35086,0.93123 -1.16074,2.59299 -1.79973,3.69278 -0.63899,1.09981 -1.16179,2.14902 -1.16179,2.3316 0,0.35083 -1.61368,3.46971 -2.8128,5.4365 -0.39179,0.64261 -0.71293,1.3666 -0.71366,1.60887 -7e-4,0.24227 -0.62077,1.82977 -1.37788,3.52778 -0.75712,1.698 -2.28071,5.15104 -3.38576,7.6734 -2.51331,5.7368 -3.23577,6.70124 -5.9591,7.95512 -2.00372,0.92255 -2.72923,1.03103 -10.33739,1.54562 -8.18219,0.55341 -14.26911,0.63157 -18.30431,0.23504 z"
       id="path231" /></g></svg>
